<svg width="600" height="246" viewBox="0 0 600 246" fill="none" xmlns="http://www.w3.org/2000/svg">
<g clip-path="url(#clip0_6_52)">
<path d="M147.59 177.062C136.745 174.817 126.556 166.64 120.999 158.175C114.556 148.361 113.13 136.118 115.398 126.581C122.061 98.557 157.143 86.6689 171.058 76.08C180.372 68.9921 182.671 65.2004 185.114 61.2026C189.843 53.4644 191.859 43.8686 185.05 42.1075C178.549 40.4261 171.638 49.4555 168.201 55.8195C165.11 61.5437 162.748 67.3978 162.692 76.7154C162.667 80.9016 161.737 197.72 161.745 199.534C161.821 217.662 150.03 223.389 138.923 223.055C114.936 222.334 110.783 198.5 122.638 191.465C131.765 186.048 142.738 193.522 140.461 204.338C138.444 213.919 128.404 212.702 125.882 212.098C128.803 219.354 157.845 227.275 157.827 196.472C157.824 192.144 158.953 82.4038 158.946 79.9434C158.896 61.5236 160.616 47.2079 173.01 32.061C177.586 26.4694 183.955 23.3723 186.712 24.3168C187.318 24.5244 187.906 24.8343 188.326 25.3902C194.805 33.945 194.665 50.738 192.416 60.0591C190.112 69.6031 188.134 79.5443 176.236 89.6974C171.632 93.6265 158.156 101.782 150.429 106.47C139.57 113.056 131.516 119.023 126.457 126.92C120.772 135.796 118.253 147.665 126.273 159.736C130.902 166.571 139.439 172.209 147.149 173.46C168.585 176.936 176.362 167.843 178.268 156.51C181.407 137.849 158.639 127.198 146.91 138.592C140.11 145.199 141.428 153.426 144.682 157.734C145.799 159.213 147.116 160.409 148.418 161.161C148.89 161.433 149.991 162.13 149.542 162.841C149.168 163.433 148.622 163.387 148.138 163.257C142.065 161.628 136.064 155.003 135.827 145.122C135.483 130.72 151.047 116.034 169.287 121.556C181.229 125.171 191.07 136.831 187.292 155.225C184.054 170.99 168.287 181.344 147.59 177.062V177.062Z" fill="white"/>
</g>
<path d="M202.75 112.688L209.453 105.797C212.609 110.984 217 113.578 222.625 113.578C226.312 113.578 229.578 112.016 232.422 108.891C235.266 105.766 237.203 101.625 238.234 96.4688L247.094 51.9375C245.5 51.6875 244.391 51.5625 243.766 51.5625C238.609 51.5625 234.312 53.4062 230.875 57.0938C227.437 60.75 225.719 65.3125 225.719 70.7812L216.625 75.2344C217.281 66.5156 220.766 59.7344 227.078 54.8906C233.391 50.0469 241.875 47.625 252.531 47.625H256.328C262.109 63.7188 266.328 80.2656 268.984 97.2656L299.734 47.625L309.766 46.4531L306.203 61.5L298.562 99.7969C297.906 103.203 297.578 105.922 297.578 107.953C297.578 110.703 299.25 112.078 302.594 112.078C304.25 112.078 306.469 111.906 309.25 111.562L308.641 114.562L285.484 119.156L297.625 58.125L265.562 109.5L260.734 110.25V108.891C260.734 96.6719 257.75 81.5 251.781 63.375L247.937 82.5C243.25 106.094 233.031 117.891 217.281 117.891C211.781 117.891 206.937 116.156 202.75 112.688Z" fill="#00C2FF"/>
<path d="M343.344 100.031H342.812C336.896 111.865 331.125 117.781 325.5 117.781C322.167 117.781 320.5 115.812 320.5 111.875C320.5 110.75 320.667 109.344 321 107.656L324.031 92.3125C324.51 89.9167 324.75 88.3542 324.75 87.625C324.75 86.3333 324.135 85.6875 322.906 85.6875C320.865 85.6875 317.76 87.9688 313.594 92.5312L314.156 89.6562C318.698 84.7604 322.792 82.3125 326.437 82.3125C329.458 82.3125 330.969 83.875 330.969 87C330.969 88.0417 330.719 89.8125 330.219 92.3125L327.156 107.688C326.885 109.062 326.75 110.042 326.75 110.625C326.75 112.312 327.365 113.156 328.594 113.156C330.156 113.156 332.521 111.271 335.687 107.5C338.875 103.708 341.802 99.3021 344.469 94.2812L346.719 83.0625L353.344 82.6875L351.031 92.3125L347.969 107.75C347.49 110.146 347.25 111.708 347.25 112.438C347.25 113.75 347.865 114.406 349.094 114.406C351.156 114.406 354.26 112.115 358.406 107.531L357.844 110.438C353.281 115.333 349.187 117.781 345.562 117.781C342.542 117.781 341.031 116.208 341.031 113.062C341.031 112 341.281 110.229 341.781 107.75L343.344 100.031ZM357.062 115.938L361.156 111.719C363.865 113.698 366.625 114.688 369.437 114.688C371.167 114.688 372.625 114.24 373.812 113.344C375 112.427 375.594 111.302 375.594 109.969C375.594 108.49 374.417 106.469 372.062 103.906L369.219 100.781C366.448 97.7396 365.062 95.1979 365.062 93.1562C365.062 90.3229 366.406 87.8125 369.094 85.625C371.781 83.4167 374.854 82.3125 378.312 82.3125C380.208 82.3125 382.333 82.7083 384.687 83.5L383.312 90.4062H381.344L381.437 89.875C381.479 89.6875 381.5 89.4688 381.5 89.2188C381.5 86.4062 379.687 85 376.062 85C372 85 369.969 86.625 369.969 89.875C369.969 91.5208 371.177 93.7083 373.594 96.4375L376.156 99.2812C378.948 102.427 380.344 105.01 380.344 107.031C380.344 109.823 378.865 112.312 375.906 114.5C372.948 116.688 369.583 117.781 365.812 117.781C363.167 117.781 360.25 117.167 357.062 115.938ZM411.469 107.531L410.906 110.438C406.344 115.333 402.25 117.781 398.625 117.781C395.625 117.781 394.125 116.208 394.125 113.062C394.125 112 394.365 110.25 394.844 107.812L397 96.9375C397.583 93.8542 397.875 91.8021 397.875 90.7812C397.875 89.0312 397.198 88.1562 395.844 88.1562C394.906 88.1562 393.229 88.5208 390.812 89.25L391.187 87.3125L406.469 82.3125L404.094 92.3125L401.031 107.75C400.552 110.167 400.312 111.708 400.312 112.375C400.312 113.729 400.927 114.406 402.156 114.406C404.219 114.406 407.323 112.115 411.469 107.531ZM400 76.875L402.094 72.625L410.906 66.875L408.219 72.625L400 76.875ZM441.5 108.406L441.031 110.844C434.198 115.469 428.594 117.781 424.219 117.781C421.198 117.781 418.771 116.76 416.937 114.719C415.104 112.677 414.187 109.979 414.187 106.625C414.187 100.562 416.479 95 421.062 89.9375C425.646 84.8542 430.687 82.3125 436.187 82.3125C438.604 82.3125 441.01 82.8438 443.406 83.9062L441.312 91.9375H439.375L439.469 91.4688C439.677 90.4896 439.781 89.7708 439.781 89.3125C439.781 86.4375 437.833 85 433.937 85C430.271 85 427.219 86.9583 424.781 90.875C422.344 94.7917 421.125 99.7083 421.125 105.625C421.125 111.271 423.229 114.094 427.437 114.094C431.437 114.094 436.125 112.198 441.5 108.406Z" fill="white"/>
<path d="M290.141 204L297.078 197.062L297.781 197.25C298.156 197.312 299.062 197.344 300.5 197.344C303.969 197.344 306.531 196.109 308.187 193.641C309.875 191.172 311.437 186.344 312.875 179.156L320.328 141.562H308.469C296.437 141.562 290.422 146.312 290.422 155.812C290.422 156.938 290.562 158.328 290.844 159.984L281.094 164.531C282.406 155.344 286.391 148.062 293.047 142.688C299.703 137.312 308.078 134.625 318.172 134.625H338.047C347.016 134.625 352.953 134.031 355.859 132.844C358.766 131.656 360.734 129.016 361.766 124.922L368.797 122.062C366.609 127.875 362.391 132.578 356.141 136.172C349.891 139.766 342.797 141.562 334.859 141.562H330.172L323.656 174.234C322.5 180.109 320.781 184.75 318.5 188.156C316.25 191.531 312.703 194.766 307.859 197.859L325.953 198.234L319.437 205.172L290.141 204Z" fill="#00D1FF"/>
<path d="M349.437 204.375L351.75 194.75L354.781 179.469C355.094 177.927 355.25 176.594 355.25 175.469C355.25 173.677 354.625 172.781 353.375 172.781C351.167 172.781 348.01 175.135 343.906 179.844L344.469 177.062C349.281 171.875 353.458 169.281 357 169.281C360 169.281 361.5 171 361.5 174.438C361.5 175.958 361.312 177.646 360.937 179.5L359.437 187.031H359.844C362.323 181.823 365.25 177.573 368.625 174.281C372.021 170.969 375.125 169.312 377.937 169.312C379.396 169.312 380.698 169.635 381.844 170.281L377.687 175.906C376.458 175.094 375.417 174.688 374.562 174.688C370.5 174.688 365.094 180.656 358.344 192.594L356.062 204L349.437 204.375ZM407.437 187.031H406.875C404.521 192.26 401.687 196.531 398.375 199.844C395.062 203.135 391.958 204.781 389.062 204.781C384.667 204.781 382.469 202.031 382.469 196.531C382.469 190.469 384.885 184.531 389.719 178.719C394.719 172.698 400.823 169.688 408.031 169.688C411.01 169.688 414.125 169.812 417.375 170.062L415.125 179.312L412.094 194.75C411.615 197.167 411.375 198.729 411.375 199.438C411.375 200.75 411.99 201.406 413.219 201.406C415.302 201.406 418.406 199.115 422.531 194.531L421.969 197.438C417.406 202.333 413.312 204.781 409.687 204.781C406.667 204.781 405.156 203.208 405.156 200.062C405.156 199.021 405.406 197.25 405.906 194.75L407.437 187.031ZM409.937 174.531C407.312 173.365 404.719 172.781 402.156 172.781C398.365 172.781 395.333 175.177 393.062 179.969C390.396 185.635 389.062 190.729 389.062 195.25C389.062 198.521 390.021 200.156 391.937 200.156C393.729 200.156 396.302 198.281 399.656 194.531C403.031 190.76 405.99 186.458 408.531 181.625L409.937 174.531ZM447.187 194.531L446.625 197.438C442.062 202.333 437.969 204.781 434.344 204.781C431.344 204.781 429.844 203.208 429.844 200.062C429.844 199 430.083 197.25 430.562 194.812L432.719 183.938C433.302 180.854 433.594 178.802 433.594 177.781C433.594 176.031 432.917 175.156 431.562 175.156C430.625 175.156 428.948 175.521 426.531 176.25L426.906 174.312L442.187 169.312L439.812 179.312L436.75 194.75C436.271 197.167 436.031 198.708 436.031 199.375C436.031 200.729 436.646 201.406 437.875 201.406C439.937 201.406 443.042 199.115 447.187 194.531ZM435.719 163.875L437.812 159.625L446.625 153.875L443.937 159.625L435.719 163.875ZM452.031 204.375L454.344 194.75L457.406 179.312C457.885 176.917 458.125 175.354 458.125 174.625C458.125 173.333 457.51 172.688 456.281 172.688C454.24 172.688 451.135 174.969 446.969 179.531L447.531 176.656C452.073 171.76 456.167 169.312 459.812 169.312C462.812 169.312 464.312 170.875 464.312 174C464.312 175.062 464.073 176.833 463.594 179.312L462.062 187.031H462.531C465.135 181.698 468.073 177.417 471.344 174.188C474.635 170.938 477.698 169.312 480.531 169.312C483.948 169.312 485.656 171.208 485.656 175C485.656 176.229 485.479 177.729 485.125 179.5L482.094 194.75C481.615 197.167 481.375 198.729 481.375 199.438C481.375 200.75 481.99 201.406 483.219 201.406C485.302 201.406 488.417 199.115 492.562 194.531L491.969 197.438C487.427 202.333 483.333 204.781 479.687 204.781C476.687 204.781 475.187 203.208 475.187 200.062C475.187 199.021 475.437 197.25 475.937 194.75L478.969 179.438C479.219 178.25 479.344 177.25 479.344 176.438C479.344 174.75 478.719 173.906 477.469 173.906C473.49 173.906 467.969 180.219 460.906 192.844L458.625 204L452.031 204.375ZM516.812 194.531L516.25 197.438C511.687 202.333 507.594 204.781 503.969 204.781C500.969 204.781 499.469 203.208 499.469 200.062C499.469 199 499.708 197.25 500.187 194.812L502.344 183.938C502.927 180.854 503.219 178.802 503.219 177.781C503.219 176.031 502.542 175.156 501.187 175.156C500.25 175.156 498.573 175.521 496.156 176.25L496.531 174.312L511.812 169.312L509.437 179.312L506.375 194.75C505.896 197.167 505.656 198.708 505.656 199.375C505.656 200.729 506.271 201.406 507.5 201.406C509.562 201.406 512.667 199.115 516.812 194.531ZM505.344 163.875L507.437 159.625L516.25 153.875L513.562 159.625L505.344 163.875ZM521.656 204.375L523.969 194.75L527.031 179.312C527.51 176.917 527.75 175.354 527.75 174.625C527.75 173.333 527.135 172.688 525.906 172.688C523.865 172.688 520.76 174.969 516.594 179.531L517.156 176.656C521.698 171.76 525.792 169.312 529.437 169.312C532.437 169.312 533.937 170.875 533.937 174C533.937 175.062 533.698 176.833 533.219 179.312L531.687 187.031H532.156C534.76 181.698 537.698 177.417 540.969 174.188C544.26 170.938 547.323 169.312 550.156 169.312C553.573 169.312 555.281 171.208 555.281 175C555.281 176.229 555.104 177.729 554.75 179.5L551.719 194.75C551.24 197.167 551 198.729 551 199.438C551 200.75 551.615 201.406 552.844 201.406C554.927 201.406 558.042 199.115 562.187 194.531L561.594 197.438C557.052 202.333 552.958 204.781 549.312 204.781C546.312 204.781 544.812 203.208 544.812 200.062C544.812 199.021 545.062 197.25 545.562 194.75L548.594 179.438C548.844 178.25 548.969 177.25 548.969 176.438C548.969 174.75 548.344 173.906 547.094 173.906C543.115 173.906 537.594 180.219 530.531 192.844L528.25 204L521.656 204.375ZM568.469 203.5C565.969 202.25 564.719 199.74 564.719 195.969C564.719 189.802 567.219 183.844 572.219 178.094C577.073 172.49 583.104 169.688 590.312 169.688C591.687 169.688 594.594 169.812 599.031 170.062L596.812 179.312L595.344 186.562C594.594 190.375 594.083 193.188 593.812 195C592.667 202.396 591.51 207.521 590.344 210.375C589.198 213.25 587.156 216.062 584.219 218.812C579.906 222.812 574.937 224.812 569.312 224.812C565.646 224.812 562.667 224.094 560.375 222.656C558.083 221.24 556.937 219.385 556.937 217.094C556.937 212.51 560.781 207.979 568.469 203.5ZM591.562 174.625C589.062 173.396 586.573 172.781 584.094 172.781C581.323 172.781 578.979 174.021 577.062 176.5C575.542 178.458 574.156 181.354 572.906 185.188C571.677 189 571.062 192.26 571.062 194.969C571.062 197.906 571.99 199.375 573.844 199.375C577.948 199.375 583.396 193.448 590.187 181.594L591.562 174.625ZM589.094 187.031H588.594C586.385 191.927 583.74 195.865 580.656 198.844C577.573 201.823 574.333 203.573 570.937 204.094C565.479 207.865 562.75 211.365 562.75 214.594C562.75 216.677 563.76 218.448 565.781 219.906C567.823 221.385 570.292 222.125 573.187 222.125C576.917 222.125 579.854 220.667 582 217.75C584.167 214.854 585.708 210.271 586.625 204L589.094 187.031Z" fill="white"/>
<defs>
<clipPath id="clip0_6_52">
<rect width="275.508" height="206.631" fill="white" transform="translate(30.675) rotate(8.53728)"/>
</clipPath>
</defs>
</svg>
